<svg width="14" height="14" viewBox="0 0 14 14" fill="none" xmlns="http://www.w3.org/2000/svg">
<path fill-rule="evenodd" clip-rule="evenodd" d="M7 13.125C8.62445 13.125 10.1824 12.4797 11.331 11.331C12.4797 10.1824 13.125 8.62445 13.125 7C13.125 5.37555 12.4797 3.81763 11.331 2.66897C10.1824 1.52031 8.62445 0.875 7 0.875C5.37555 0.875 3.81763 1.52031 2.66897 2.66897C1.52031 3.81763 0.875 5.37555 0.875 7C0.875 8.62445 1.52031 10.1824 2.66897 11.331C3.81763 12.4797 5.37555 13.125 7 13.125V13.125ZM7 14C8.85652 14 10.637 13.2625 11.9497 11.9497C13.2625 10.637 14 8.85652 14 7C14 5.14348 13.2625 3.36301 11.9497 2.05025C10.637 0.737498 8.85652 0 7 0C5.14348 0 3.36301 0.737498 2.05025 2.05025C0.737498 3.36301 0 5.14348 0 7C0 8.85652 0.737498 10.637 2.05025 11.9497C3.36301 13.2625 5.14348 14 7 14V14Z" fill="#133CD7"/>
<path fill-rule="evenodd" clip-rule="evenodd" d="M6.69006 9.93469C6.64931 9.89405 6.61699 9.84577 6.59493 9.79262C6.57288 9.73947 6.56152 9.68249 6.56152 9.62494C6.56152 9.5674 6.57288 9.51042 6.59493 9.45726C6.61699 9.40411 6.64931 9.35583 6.69006 9.31519L9.00618 6.99994L6.69006 4.68469C6.64938 4.64402 6.61711 4.59573 6.5951 4.54258C6.57308 4.48943 6.56175 4.43247 6.56175 4.37494C6.56175 4.31742 6.57308 4.26045 6.5951 4.20731C6.61711 4.15416 6.64938 4.10587 6.69006 4.06519C6.73073 4.02452 6.77902 3.99225 6.83217 3.97023C6.88532 3.94822 6.94228 3.93689 6.99981 3.93689C7.05733 3.93689 7.11429 3.94822 7.16744 3.97023C7.22059 3.99225 7.26888 4.02452 7.30956 4.06519L9.93456 6.69019C9.9753 6.73083 10.0076 6.77911 10.0297 6.83226C10.0517 6.88541 10.0631 6.9424 10.0631 6.99994C10.0631 7.05749 10.0517 7.11447 10.0297 7.16762C10.0076 7.22077 9.9753 7.26905 9.93456 7.30969L7.30956 9.93469C7.26892 9.97543 7.22064 10.0078 7.16748 10.0298C7.11433 10.0519 7.05735 10.0632 6.99981 10.0632C6.94226 10.0632 6.88528 10.0519 6.83213 10.0298C6.77897 10.0078 6.7307 9.97543 6.69006 9.93469V9.93469Z" fill="#133CD7"/>
<path fill-rule="evenodd" clip-rule="evenodd" d="M3.9375 7C3.9375 6.88397 3.98359 6.77269 4.06564 6.69064C4.14769 6.60859 4.25897 6.5625 4.375 6.5625H8.75C8.86603 6.5625 8.97731 6.60859 9.05936 6.69064C9.14141 6.77269 9.1875 6.88397 9.1875 7C9.1875 7.11603 9.14141 7.22731 9.05936 7.30936C8.97731 7.39141 8.86603 7.4375 8.75 7.4375H4.375C4.25897 7.4375 4.14769 7.39141 4.06564 7.30936C3.98359 7.22731 3.9375 7.11603 3.9375 7Z" fill="#133CD7"/>
</svg>
