<svg width="158" height="24" viewBox="0 0 158 24" fill="none" xmlns="http://www.w3.org/2000/svg">
<path d="M12.4059 0.482657C12.6236 -0.160885 13.5714 -0.160886 13.7891 0.482657L16.3825 8.1497C16.4798 8.4375 16.759 8.63235 17.074 8.63235L25.4664 8.63236C26.1709 8.63236 26.4637 9.49824 25.8938 9.89597L19.1043 14.6345C18.8494 14.8123 18.7428 15.1276 18.8401 15.4154L21.4335 23.0825C21.6512 23.726 20.8844 24.2611 20.3145 23.8634L13.5249 19.1249C13.2701 18.9471 12.9249 18.9471 12.6701 19.1249L5.88049 23.8634C5.3106 24.2611 4.54382 23.726 4.7615 23.0825L7.35489 15.4154C7.45223 15.1276 7.34559 14.8123 7.09073 14.6345L0.301144 9.89597C-0.268748 9.49824 0.0241367 8.63236 0.728562 8.63236L9.12095 8.63235C9.43598 8.63235 9.71518 8.4375 9.81253 8.1497L12.4059 0.482657Z" fill="white"/>
<path d="M45.3572 0.482676C45.5749 -0.160866 46.5227 -0.160867 46.7404 0.482676L49.3338 8.14972C49.4311 8.43752 49.7103 8.63237 50.0253 8.63237H58.4177C59.1221 8.63237 59.415 9.49826 58.8451 9.89599L52.0556 14.6345C51.8007 14.8124 51.694 15.1276 51.7914 15.4154L54.3848 23.0825C54.6025 23.726 53.8357 24.2612 53.2658 23.8634L46.4762 19.1249C46.2213 18.9471 45.8762 18.9471 45.6214 19.1249L38.8318 23.8634C38.2619 24.2612 37.4951 23.726 37.7128 23.0825L40.3062 15.4154C40.4035 15.1276 40.2969 14.8124 40.042 14.6345L33.2524 9.89599C32.6825 9.49826 32.9754 8.63237 33.6799 8.63237H42.0722C42.3873 8.63237 42.6665 8.43752 42.7638 8.14972L45.3572 0.482676Z" fill="white"/>
<path d="M78.3084 0.482657C78.5261 -0.160885 79.4739 -0.160886 79.6916 0.482657L82.285 8.1497C82.3823 8.4375 82.6615 8.63235 82.9765 8.63235L91.3689 8.63236C92.0734 8.63236 92.3662 9.49824 91.7963 9.89597L85.0068 14.6345C84.7519 14.8123 84.6453 15.1276 84.7426 15.4154L87.336 23.0825C87.5537 23.726 86.7869 24.2611 86.217 23.8634L79.4274 19.1249C79.1726 18.9471 78.8274 18.9471 78.5726 19.1249L71.783 23.8634C71.2131 24.2611 70.4463 23.726 70.664 23.0825L73.2574 15.4154C73.3547 15.1276 73.2481 14.8123 72.9932 14.6345L66.2036 9.89597C65.6338 9.49824 65.9266 8.63236 66.6311 8.63236L75.0234 8.63235C75.3385 8.63235 75.6177 8.4375 75.715 8.1497L78.3084 0.482657Z" fill="white"/>
<path d="M111.26 0.482657C111.477 -0.160885 112.425 -0.160886 112.643 0.482657L115.236 8.1497C115.334 8.4375 115.613 8.63235 115.928 8.63235L124.32 8.63236C125.025 8.63236 125.317 9.49824 124.748 9.89597L117.958 14.6345C117.703 14.8123 117.597 15.1276 117.694 15.4154L120.287 23.0825C120.505 23.726 119.738 24.2611 119.168 23.8634L112.379 19.1249C112.124 18.9471 111.779 18.9471 111.524 19.1249L104.734 23.8634C104.164 24.2611 103.398 23.726 103.615 23.0825L106.209 15.4154C106.306 15.1276 106.199 14.8123 105.944 14.6345L99.1549 9.89597C98.585 9.49824 98.8779 8.63236 99.5823 8.63236L107.975 8.63235C108.29 8.63235 108.569 8.4375 108.666 8.1497L111.26 0.482657Z" fill="white"/>
<path d="M144.211 0.482657C144.429 -0.160885 145.376 -0.160886 145.594 0.482657L148.187 8.1497C148.285 8.4375 148.564 8.63235 148.879 8.63235L157.271 8.63236C157.976 8.63236 158.269 9.49824 157.699 9.89597L150.909 14.6345C150.654 14.8123 150.548 15.1276 150.645 15.4154L153.238 23.0825C153.456 23.726 152.689 24.2611 152.119 23.8634L145.33 19.1249C145.075 18.9471 144.73 18.9471 144.475 19.1249L137.686 23.8634C137.116 24.2611 136.349 23.726 136.566 23.0825L139.16 15.4154C139.257 15.1276 139.151 14.8123 138.896 14.6345L132.106 9.89597C131.536 9.49824 131.829 8.63236 132.534 8.63236L140.926 8.63235C141.241 8.63235 141.52 8.4375 141.618 8.1497L144.211 0.482657Z" fill="white"/>
</svg>
